<?xml version="1.0" encoding="utf-8"?>
<!-- Generator: Adobe Illustrator 18.0.0, SVG Export Plug-In . SVG Version: 6.00 Build 0)  -->
<!DOCTYPE svg PUBLIC "-//W3C//DTD SVG 1.1//EN" "http://www.w3.org/Graphics/SVG/1.1/DTD/svg11.dtd">
<svg version="1.1" id="Layer_1" xmlns="http://www.w3.org/2000/svg" xmlns:xlink="http://www.w3.org/1999/xlink" x="0px" y="0px"
	 viewBox="0 0 152.3 113.8" enable-background="new 0 0 152.3 113.8" xml:space="preserve">
<path fill="#A60604" d="M151.9,0c0.1,2.6,0.3,4.9,0.4,7.2c-2.6,0.9-5.1,1.7-7.9,2.7c2.2,1.2,4.2,2.2,6.1,3.3c0.5,0.3,1,0.8,1,1.3
	c0.1,2,0,4,0,6.2c-6.4,0.3-12.8,0.5-19.3,0.8c0-2.1,0-4.1,0-6.4c3.5,0,7.1,0,10.6,0c0-0.2,0.1-0.3,0.1-0.5c-3.6-1.6-7.3-3.2-11.1-5
	c4-1.7,7.7-3.3,11.5-4.9c0-0.1,0-0.2-0.1-0.2c-3.8,0-7.7,0-11.7,0c0-1.4,0-3,0-4.5C138.3,0,145,0,151.9,0z M130.3,50.4
	c0.1-2.3-0.9-3.5-3.2-3.6c-5.8-0.1-11.6,0-17.5,0c-0.2,2-0.3,3.5-0.4,5.3c2.7,0,5.2,0,7.7,0c0.6,0,1.6,0.4,1.7,0.7
	c0.2,1.8,0.6,3.6,0.2,5.3c-0.4,1.5-2.3,1.1-3.5,1c-1.8-0.2-3.7-0.5-5.6-0.8c0,1.8,0,3.4,0,5.5c3.1,0.2,6.3,0.6,9.4,0.6
	c1.9,0,3.5-1.1,4-3c1-3.8,1.6-7.6-0.7-11.2c2.8-0.2,3.3,0.1,3.5,2.8c0.2,2.5,0.2,5.1,0.4,7.7c1.2,0,2.2,0,3.6,0
	C130,57.2,130.2,53.8,130.3,50.4z M146.6,62.5c0.4-3.1,0.8-5.6-1.5-7.8c-1.3-1.2-2.1-3-3.4-4.9c3,0,5.6,0,8.2,0
	c0.5,0,1.3-0.5,1.4-0.9c0.2-1,0.2-2.1,0.2-3.4c-6.3,0-12.3,0-18.5,0c0.1,1.5,0.2,3.1,0.4,4.7c2.3,0.4,5.1-1,5.8,2.4
	c-1.9,0.9-4.3,1.4-5.7,2.9c-1.6,1.6-0.4,4.1-0.3,6.2c1.3,0,2.5,0,3.6,0c0.3-3.9,0.3-3.9,5.1-5.4C143.5,58.3,144.9,60.3,146.6,62.5z
	 M135.5,109.2c0.2,2.9,1.3,3.8,4.2,3.9c4.1,0.2,5.2-0.9,5.3-4.9c0-0.4,0-0.9,0-1.3c0.1-1.4,0.2-2.8,0.3-4.2c0.3,0,0.5-0.1,0.8-0.1
	c0.2,0.6,0.6,1.1,0.6,1.7c0.2,2.9,0.3,5.9,0.5,8.9c1,0.1,2,0.1,3,0.2c0-3.7,0.2-7.2-0.1-10.7c-0.2-3.2-1.4-4-4.6-4
	c-1.5,0-2.7,0.6-2.8,2.2c-0.3,2.4-0.4,4.8-0.7,7.2c-0.1,0.6-0.5,1.1-0.8,1.7c-0.3-0.5-0.9-1-1-1.6c-0.2-1-0.1-2.1,0-3.1
	c0.1-2,0.2-4,0.4-6c-1.6,0-3.1,0-5.1,0C135.5,102.4,135.4,105.8,135.5,109.2z M133.6,83.3c0.1,1.5,0.2,2.9,0.4,4.5
	c2.8,0,5.4,0,8.1,0c2.2,0,1.8,1.9,2.2,3.1c0.4,1.3-0.4,1.8-1.6,1.9c0,0.8,0.1,1.6,0.1,2.3c0,0.8,0.1,1.5,0.1,2.4c0.6,0,1,0,1.4,0
	c3.5-0.1,4.5-1.1,4-4.6c-0.2-1.7-1-3.3-1.6-4.9c0.4,0,0.9-0.1,1.6-0.1c0.3-1.9,0.5-3.6,0.8-5.7C143.7,82.4,138.7,82.8,133.6,83.3z
	 M107.2,87.2c0.2,2,0.4,3.8,0.5,5.2c6.3,0,12.4,0,18.5,0c-0.1-1.5-0.2-2.7-0.3-4C119.6,88,113.5,87.6,107.2,87.2z M13.3,103.2
	c-1.6-0.6-2.4-0.2-2.6,1.3c-0.2,1.1-0.6,2.1-1.1,3.8c-0.6-1.5-1-2.5-1.5-3.5c-0.2-0.4-0.7-0.9-1.1-0.9c-0.5,0-1.1,0.4-1.4,0.8
	c-0.6,0.8-0.9,1.8-1.5,3c-0.4-1.8-0.8-3.1-1.1-4.4c-1.1,0-2,0-3.1,0c0.4,2.9,0.8,5.7,1.2,8.2c3.8,1.3,4.5-1.9,6.1-3.8
	c1.5,4,1.5,4,4.4,3.8C12.3,108.6,12.8,105.9,13.3,103.2z M83,109.2c0.2-1.6,1.6-1.2,2.6-1.3c0.3,0,0.9,0.9,1,1.5
	c0.1,1.4,0,2.9,0,4.3c3,0.3,3,0.3,3.3-2.2c0.1-1,0.2-2,0.4-3.1c0.2-1.5-0.5-2.4-1.9-2.6c-1.7-0.2-3.5-0.2-5.4-0.3c0-0.9,0-2.1,0-3.4
	c-1.1,0.1-2.1,0.1-3.2,0.2c0.2,3.7,0.4,7.3,0.6,10.9c0.7,0.1,1.3,0.1,2.1,0.2C82.7,111.8,82.8,110.5,83,109.2z M76.7,110.2
	c-0.3-1.1-1-2.7,0.7-3.6c0.3-0.2,0.4-1.2,0.2-1.8c-0.3-0.8-0.9-1.5-1.7-2.6c-0.6,0-1.6,0-2.4,0c-0.5,0.9-0.9,1.6-1.2,2.3
	c-0.2,0.6-0.4,1.7-0.1,1.9c1.4,1,0.7,2.4,0.9,3.7c0.2,1.4,0.5,2.9,2.2,3.1c1.4,0.2,2.8,0,4.3,0c0-0.9,0.1-1.6,0.1-2.1
	C78.5,110.9,76.9,110.7,76.7,110.2z M45.1,112.7c0.9,0,1.7-0.1,2.7-0.1c0-1.7-0.1-3.2,0-4.7c0.1-1.1,1.9-2.1,2.5-1.3
	c1.1,1.3,2.1,0.7,3.2,0.5c0-3.5-1.5-4-4.8-2.4c-1.6-0.5-2.8-0.8-4.3-1.3C44.6,106.8,44.9,109.7,45.1,112.7z M122.5,108.6
	c2.1,0,4.1,0,6.1,0c0,1.7,0,3.1,0,4.6c-6.2,0-12.3,0-18.6,0c-0.1-1.5-0.3-3-0.4-4.7c1.4-0.2,1.3-1.1,1.2-2.2
	c-0.2-1.9-0.3-3.8-0.3-5.6c0-3.1,1.5-4.7,4.5-5.1c0.5-0.1,1.1-0.2,1.6-0.2c4.9-0.4,6.9,1.2,7.4,6
	C124.6,105.5,124.6,105.7,122.5,108.6z M120.8,103.9c0-2.9-0.3-3.3-2.3-3.6c-1.7-0.3-3,0.6-3,2.1c0,1.9,0.5,3.9,0.9,5.8
	c0,0.2,0.4,0.4,0.7,0.5c2.1,0.5,3.2-0.2,3.5-2.4C120.6,105.5,120.7,104.5,120.8,103.9z M143.3,42.6c-2.5-0.1-5.1-0.3-8-0.4
	c-0.1-5.2-0.2-10.3-0.1-15.4c0-0.6,0.6-1.5,1.2-1.9c2.4-1.5,5.8-0.1,6.1,2.7c0.3,2.5,0.3,5.1,0.5,7.6c0,0.5,0.6,1,0.9,1.4
	c0.4-0.5,1-0.9,1-1.4c0.1-2.8,0.1-5.6,0.1-8.4c0-0.9,0-1.8,0-2.8c1.3,0.1,2.5,0.1,3.8,0.2c0.8,4.6,1,9.2,0.2,13.8
	C148.6,41.3,146.5,42.7,143.3,42.6z M141.3,30.9c0-1-0.2-1.9-1.5-1.8c-1.2,0.1-2.2,0.3-2.2,1.8c0.1,1.9,0.2,3.8,0.3,5.8
	c1.2,0,2.1,0,3.3,0C141.3,34.8,141.3,32.9,141.3,30.9z M110.1,81.7c0-3.3-0.1-6.7,0.3-10c0.4-3.3,2.6-5,5.9-4.8
	c2.5,0.1,5,0.3,7.9,0.4c0,5.2,0.1,10.3,0.1,15.4c0,1.4-1,2.1-2.4,2.3c-0.4,0-0.8,0-1.3,0c-3-0.1-3.5-0.6-3.7-3.5
	c-0.2-2.8-0.3-5.6-0.5-8.5c-1.7-0.6-1.9,0.5-2,1.7c0,3.5,0,6.9,0,10.5c-1.2,0-2.4,0-3.8,0C110.4,84,110.1,82.9,110.1,81.7z
	 M118.2,78.7c0,0.9,0.2,1.7,1.4,1.6c1.2-0.1,2.3-0.2,2.2-1.7c-0.1-2-0.2-3.9-0.4-6c-1.2,0-2.2,0-3.3,0
	C118.2,74.8,118.2,76.8,118.2,78.7z M149.1,76.6c-0.6,2.3-1.7,3.9-4.3,3.8c-0.8,0-1.7,0.1-2.6,0.2c-0.2-4.4-0.4-8.7-0.6-13.1
	c-1.6-0.4-2.3,0.4-2.4,1.7c-0.2,1.8-0.1,3.6-0.1,5.4c0,1.1,0,2.3,0,3.6c-1.2,0.1-2.4,0.1-3.7,0.2c0-4.3-0.1-8.6,0.1-12.8
	c0.1-0.9,1.6-2.1,2.6-2.4c2-0.5,4.2-0.6,6.3-0.4c2.2,0.2,3.7,1.6,4.4,3.8C149.8,70,150,73.3,149.1,76.6z M147.1,71.2
	c-0.1-2.1-1-2.7-3.2-2.4c0,2.8,0,5.5,0,8.3c1.8-0.1,2.8-0.9,3.1-2.5C147.2,73.5,147.2,72.3,147.1,71.2z M43.1,107.3
	c-0.1,1.2-0.2,2.4-0.2,3.6c0,0.2-0.1,0.3-0.2,1c-2.8,0-5.7,0-8.6,0c-1.3,0-1.8-0.8-1.8-2c0-1.1,0-2.3,1.6-2.4
	c1.9-0.1,3.7-0.3,5.9-0.5c-1-1.6-2.4-1.1-3.5-1.1c-1.3-0.1-2.6,0-4.2,0c0.1-0.8,0.1-1.5,0.2-2.4c2.7,0,5.3-0.2,7.8,0.1
	C42.3,103.7,43.2,105,43.1,107.3z M39.6,108.3c-1.5,0-2.9,0-4.3,0c-0.1,2.3,0.8,2.6,4.3,1.6C39.6,109.4,39.6,108.9,39.6,108.3z
	 M24.8,107.7c-2.6,0.1-5.1,0.3-7.8,0.4c0.3,1.9,1.7,1.5,2.8,1.5c1.1,0,2.3-0.1,3.6-0.2c0.1,0.8,0.1,1.5,0.2,2.4
	c-2.5,0-4.8,0.1-7.1,0c-0.5,0-1.2-0.4-1.5-0.8c-2.1-2.5-0.6-6.8,2.6-7.5c1.1-0.2,2.2-0.3,3.2-0.3C23.9,103.5,24.5,104.2,24.8,107.7z
	 M22.7,106.6c-0.7-1.7-1.7-2.2-3.6-1.9c-1.1,0.2-1.6,0.7-1.3,2.1C19.4,106.7,21,106.7,22.7,106.6z M64.9,107.8c-2.6,0-5.2,0-7.9,0
	c0.3,2.1,1.7,1.8,2.8,1.8c1.1,0,2.3-0.1,3.6-0.2c0.1,0.8,0.1,1.5,0.2,2.3c-2.6,0-5,0-7.5,0c-0.4,0-0.9-0.4-1.2-0.8
	c-2.1-2.6-0.6-6.8,2.6-7.5c1.1-0.2,2.2-0.3,3.2-0.3C64,103.5,64.7,104.2,64.9,107.8z M62.8,106.6c-0.7-1.7-1.8-2.3-3.7-1.9
	c-1.1,0.2-1.5,0.8-1.1,2.1C59.5,106.7,61.1,106.7,62.8,106.6z M102.1,107.7c-2.6,0.1-5.1,0.3-7.7,0.4c0.2,1.3,0.2,1.3,6.3,1.5
	c0,0.8,0.1,1.4,0.1,2.2c-2.6,0-5,0-7.5,0c-0.4,0-0.9-0.4-1.2-0.7c-2.1-2.5-0.6-6.8,2.6-7.5c1.1-0.2,2.2-0.3,3.2-0.3
	C101.2,103.5,101.8,104.2,102.1,107.7z M100.1,106.6c-0.7-2.2-2.3-1.9-3.7-1.8c-1.1,0.1-1.6,0.7-1.2,2.1
	C96.8,106.7,98.4,106.7,100.1,106.6z"/>
<g>
</g>
<g>
</g>
<g>
</g>
<g>
</g>
<g>
</g>
<g>
</g>
<g>
</g>
<g>
</g>
<g>
</g>
<g>
</g>
<g>
</g>
<g>
</g>
<g>
</g>
<g>
</g>
<g>
</g>
</svg>
