<?xml version="1.0" encoding="utf-8"?>
<!-- Generator: Adobe Illustrator 18.0.0, SVG Export Plug-In . SVG Version: 6.00 Build 0)  -->
<!DOCTYPE svg PUBLIC "-//W3C//DTD SVG 1.1//EN" "http://www.w3.org/Graphics/SVG/1.1/DTD/svg11.dtd">
<svg version="1.1" id="Layer_1" xmlns="http://www.w3.org/2000/svg" xmlns:xlink="http://www.w3.org/1999/xlink" x="0px" y="0px"
	 viewBox="0 0 417.6 311.9" enable-background="new 0 0 417.6 311.9" xml:space="preserve">
<path fill="#A60604" d="M416.6,0c0.4,7.1,0.7,13.3,1.1,19.7c-7.2,2.4-14.1,4.8-21.6,7.3c6.1,3.3,11.5,6.1,16.8,9.1
	c1.2,0.7,2.7,2.3,2.8,3.6c0.3,5.4,0.1,10.9,0.1,17c-17.4,0.7-35,1.4-52.9,2.2c0-5.9,0-11.2,0-17.4c9.7,0,19.4,0,29.1,0
	c0.1-0.4,0.2-0.9,0.2-1.3c-9.9-4.4-19.9-8.9-30.4-13.6c10.9-4.7,21.2-9.1,31.5-13.5c-0.1-0.2-0.1-0.4-0.2-0.6c-10.5,0-21,0-32,0
	c0-3.9,0-8.1,0-12.4C379.2,0,397.6,0,416.6,0z M357.3,138.2c0.2-6.3-2.5-9.7-8.8-9.8c-15.9-0.4-31.8-0.1-47.9-0.1
	c-0.4,5.5-0.8,9.7-1.1,14.6c7.4,0,14.2-0.1,21,0.1c1.6,0,4.5,1,4.6,1.9c0.7,4.8,1.8,10,0.6,14.5c-1.1,4.2-6.2,3-9.7,2.7
	c-5-0.4-10-1.4-15.3-2.2c0,4.9,0,9.4,0,15c8.6,0.6,17.1,1.6,25.7,1.6c5.1,0,9.5-3,10.9-8.1c2.8-10.3,4.3-20.8-1.8-30.7
	c7.7-0.4,8.9,0.3,9.5,7.6c0.6,6.9,0.7,13.9,1,21.1c3.2,0,5.9,0,9.8,0C356.3,156.8,357,147.5,357.3,138.2z M401.9,171.4
	c1.2-8.5,2.3-15.4-4.1-21.4c-3.6-3.4-5.8-8.3-9.2-13.4c8.3,0,15.4,0.1,22.5-0.1c1.4,0,3.6-1.3,3.8-2.4c0.7-2.8,0.5-5.8,0.7-9.4
	c-17.2,0-33.7,0-50.7,0c0.3,4.1,0.7,8.5,1,12.8c6.2,1.2,14-2.6,15.8,6.5c-5.3,2.5-11.7,3.9-15.6,7.9c-4.5,4.5-1.1,11.2-0.8,16.9
	c3.7,0,6.7,0,9.8,0C376,158,376,158,389.1,154C393.3,159.7,397.3,165.2,401.9,171.4z M371.6,299.4c0.5,8,3.5,10.3,11.5,10.6
	c11.2,0.5,14.2-2.4,14.5-13.6c0-1.2,0-2.3,0.1-3.5c0.2-3.8,0.5-7.7,0.7-11.5c0.7-0.1,1.5-0.3,2.2-0.4c0.6,1.5,1.6,3.1,1.8,4.6
	c0.6,8.1,0.9,16.1,1.3,24.4c2.9,0.1,5.5,0.3,8.1,0.4c0-10.2,0.5-19.8-0.2-29.3c-0.6-8.7-3.8-10.9-12.6-11c-4.2-0.1-7.3,1.5-7.8,6
	c-0.7,6.6-1,13.3-1.8,19.9c-0.2,1.6-1.5,3.1-2.3,4.6c-1-1.5-2.5-2.9-2.7-4.4c-0.5-2.8-0.3-5.6-0.1-8.5c0.3-5.4,0.7-10.9,1-16.6
	c-4.4,0-8.5,0-13.9,0C371.5,280.6,371.1,290,371.6,299.4z M366.4,228.2c0.4,4.2,0.7,7.8,1.1,12.3c7.6,0,14.8,0,22.1,0
	c6.1,0,4.9,5.1,5.9,8.5c1.1,3.7-1.1,5-4.5,5.1c0.1,2.3,0.2,4.3,0.3,6.3c0.1,2.1,0.2,4.2,0.3,6.5c1.7,0,2.8,0,3.9,0
	c9.7-0.4,12.2-3,10.9-12.7c-0.6-4.6-2.9-8.9-4.4-13.5c1.1-0.1,2.6-0.2,4.3-0.4c0.7-5.1,1.4-10,2.1-15.6
	C393.9,226,380.3,227.1,366.4,228.2z M293.9,239.1c0.6,5.5,1.1,10.4,1.5,14.3c17.4,0,34,0,50.8,0c-0.3-4.2-0.5-7.4-0.8-10.9
	C328,241.3,311.1,240.2,293.9,239.1z M36.6,282.9c-4.5-1.7-6.5-0.5-7.1,3.6c-0.5,3-1.7,5.9-3,10.3c-1.7-4.2-2.7-6.9-4-9.5
	c-0.6-1.1-2-2.5-3-2.4c-1.3,0-3,1.1-3.8,2.2c-1.5,2.2-2.5,4.8-4.2,8.3c-1.2-4.8-2.2-8.6-3-12c-3,0-5.4,0-8.4,0
	c1.2,8,2.3,15.6,3.3,22.5c10.4,3.6,12.3-5.2,16.6-10.5c4.2,11,4.2,11,12.2,10.3C33.6,297.8,35.1,290.3,36.6,282.9z M227.5,299.3
	c0.6-4.3,4.4-3.4,7.1-3.7c0.8-0.1,2.6,2.6,2.7,4.1c0.4,3.9,0.1,7.9,0.1,11.8c8.2,0.9,8.2,0.9,9.1-6.1c0.4-2.8,0.7-5.6,1.1-8.4
	c0.6-4.1-1.4-6.6-5.2-7.1c-4.7-0.6-9.5-0.6-14.8-0.9c0-2.6,0-5.8,0-9.2c-3.1,0.2-5.7,0.3-8.8,0.5c0.6,10.2,1.1,19.9,1.7,29.9
	c2,0.2,3.6,0.4,5.7,0.6C226.7,306.5,227,302.9,227.5,299.3z M210.4,302.1c-0.9-3-2.8-7.3,2-9.9c0.8-0.5,1.1-3.4,0.5-4.8
	c-0.9-2.2-2.6-4.1-4.5-7c-1.6,0-4.5,0-6.7,0c-1.3,2.4-2.6,4.3-3.3,6.4c-0.6,1.7-1.1,4.7-0.4,5.2c3.8,2.8,1.9,6.7,2.4,10
	c0.6,3.9,1.2,8,6.1,8.6c3.9,0.5,7.8,0.1,11.8,0.1c0.1-2.4,0.2-4.4,0.3-5.7C215.3,303.9,210.8,303.6,210.4,302.1z M123.6,309
	c2.5-0.1,4.6-0.2,7.3-0.3c0-4.6-0.2-8.7,0.1-12.8c0.2-3,5.2-5.7,7-3.6c2.9,3.6,5.7,1.8,8.7,1.4c-0.1-9.5-4.1-11-13.2-6.5
	c-4.5-1.3-7.8-2.3-11.8-3.5C122.3,292.7,123,300.7,123.6,309z M335.9,297.7c5.8,0,11.1,0,16.8,0c0,4.7,0,8.5,0,12.7
	c-16.9,0-33.6,0-50.9,0c-0.3-4-0.7-8.3-1.1-12.9c3.9-0.5,3.6-3,3.3-6.1c-0.6-5.1-0.8-10.3-0.8-15.5c0.1-8.4,4.1-12.9,12.4-14.1
	c1.5-0.2,3-0.5,4.5-0.6c13.3-1.2,18.9,3.3,20.3,16.5C341.7,289.3,341.6,289.8,335.9,297.7z M331.1,285c0-8-0.9-9.2-6.2-10
	c-4.7-0.7-8.1,1.6-8.2,5.8c-0.1,5.3,1.5,10.7,2.5,16c0.1,0.5,1.1,1.1,1.8,1.3c5.8,1.4,8.7-0.6,9.5-6.5
	C330.7,289.1,330.9,286.6,331.1,285z M392.9,116.9c-6.9-0.2-13.9-0.7-21.9-1.1c-0.2-14.4-0.5-28.3-0.4-42.2c0-1.8,1.7-4.1,3.3-5.1
	c6.6-4.2,15.9-0.2,16.8,7.4c0.8,6.9,0.8,14,1.5,20.9c0.1,1.4,1.6,2.6,2.4,3.9c1-1.2,2.7-2.4,2.8-3.7c0.3-7.6,0.3-15.3,0.3-22.9
	c0-2.5,0-4.9,0-7.7c3.6,0.2,6.8,0.4,10.5,0.6c2.1,12.6,2.8,25.2,0.6,37.7C407.3,113.3,401.8,117.2,392.9,116.9z M387.4,84.8
	c0-2.7-0.4-5.1-4.1-4.8c-3.2,0.3-6.2,0.7-5.9,5c0.3,5.3,0.6,10.5,0.9,16c3.2,0,5.8,0,9.1,0C387.4,95.4,387.4,90.1,387.4,84.8z
	 M301.8,223.9c0-9.1-0.2-18.3,0.7-27.4c1-9.1,7.2-13.6,16.2-13.1c6.8,0.4,13.6,0.7,21.7,1.1c0.1,14.4,0.3,28.3,0.3,42.2
	c0,3.9-2.8,5.9-6.5,6.3c-1.2,0.1-2.3,0.1-3.5,0.1c-8.1-0.3-9.6-1.6-10.2-9.5c-0.6-7.6-1-15.3-1.4-23.3c-4.7-1.7-5.3,1.3-5.4,4.6
	c-0.1,9.5,0,19,0,28.8c-3.4,0-6.6,0-10.4,0C302.7,230.4,301.8,227.2,301.8,223.9z M324.1,215.9c0,2.5,0.4,4.7,3.8,4.4
	c3.2-0.2,6.2-0.6,6.1-4.7c-0.2-5.4-0.6-10.8-1-16.4c-3.3,0-5.9,0-8.9,0C324.1,205,324,210.5,324.1,215.9z M408.7,210.1
	c-1.7,6.2-4.7,10.6-11.9,10.5c-2.3,0-4.6,0.3-7.2,0.5c-0.5-12.2-1-23.9-1.5-35.8c-4.3-1.2-6.3,1.1-6.6,4.6
	c-0.4,4.9-0.2,9.9-0.2,14.9c0,3.1,0,6.2,0,9.8c-3.4,0.2-6.7,0.3-10,0.5c0-11.9-0.4-23.5,0.3-35c0.2-2.4,4.3-5.9,7.1-6.5
	c5.6-1.3,11.5-1.5,17.2-1c6,0.6,10.1,4.3,12,10.5C410.6,192,411.2,200.9,408.7,210.1z M403.4,195.2c-0.3-5.8-2.7-7.4-8.8-6.6
	c0,7.5,0,15.1,0,22.8c5-0.2,7.7-2.5,8.4-6.8C403.4,201.5,403.6,198.3,403.4,195.2z M118.1,294c-0.1,3.3-0.4,6.6-0.7,10
	c0,0.5-0.2,0.9-0.6,2.8c-7.7,0-15.6,0.1-23.5,0c-3.5,0-5-2.2-5-5.5c0.1-3.1,0-6.2,4.3-6.5c5.1-0.4,10.2-0.9,16.2-1.4
	c-2.6-4.3-6.5-2.9-9.6-3.2c-3.6-0.2-7.2-0.1-11.5-0.1c0.2-2.3,0.3-4.1,0.5-6.5c7.3,0,14.4-0.5,21.5,0.1
	C116,284.3,118.4,287.9,118.1,294z M108.5,297c-4.1,0-8,0-11.9,0c-0.3,6.3,2.2,7.2,11.9,4.4C108.5,299.9,108.5,298.4,108.5,297z
	 M67.9,295.3c-7,0.3-14,0.7-21.5,1.1c0.8,5.1,4.6,4.1,7.6,4.2c3.1,0.1,6.3-0.3,10-0.5c0.2,2.1,0.3,4,0.5,6.6
	c-6.9,0-13.2,0.1-19.5-0.1c-1.4-0.1-3.2-1.1-4.2-2.3c-5.7-6.9-1.6-18.6,7.1-20.4c2.9-0.6,6-0.9,8.9-0.7
	C65.5,283.7,67.2,285.7,67.9,295.3z M62.2,292.2c-2-4.7-4.6-5.9-9.7-5.2c-3,0.4-4.4,1.9-3.7,5.8C53.3,292.6,57.6,292.4,62.2,292.2z
	 M177.9,295.7c-7.2,0-14.2,0-21.6,0c0.9,5.8,4.7,4.8,7.7,4.9c3.1,0.1,6.3-0.3,10-0.5c0.2,2.1,0.3,4,0.5,6.4c-7,0-13.7,0.1-20.5-0.1
	c-1.1,0-2.5-1.1-3.2-2.1c-5.6-7-1.6-18.6,7.2-20.4c2.9-0.6,6-0.9,8.9-0.7C175.5,283.7,177.2,285.7,177.9,295.7z M172.1,292.2
	c-1.9-4.7-5-6.2-10.1-5.1c-3,0.6-4.1,2.3-3.1,5.8C163.2,292.6,167.6,292.4,172.1,292.2z M279.9,295.3c-7,0.3-14,0.7-21.1,1
	c0.6,3.4,0.6,3.4,17.2,4c0.1,2.1,0.2,3.9,0.4,6.1c-7,0-13.7,0.1-20.4-0.1c-1.1,0-2.5-1.1-3.2-2c-5.7-7-1.6-18.6,7.1-20.5
	c2.9-0.6,6-0.9,8.9-0.7C277.4,283.7,279.2,285.7,279.9,295.3z M274.3,292.2c-2-6-6.2-5.3-10.1-5.1c-3,0.2-4.3,2-3.4,5.8
	C265.4,292.6,269.7,292.4,274.3,292.2z"/>
<g>
</g>
<g>
</g>
<g>
</g>
<g>
</g>
<g>
</g>
<g>
</g>
<g>
</g>
<g>
</g>
<g>
</g>
<g>
</g>
<g>
</g>
<g>
</g>
<g>
</g>
<g>
</g>
<g>
</g>
</svg>
