<?xml version="1.0" encoding="utf-8"?>
<!-- Generator: Adobe Illustrator 17.0.0, SVG Export Plug-In . SVG Version: 6.00 Build 0)  -->
<!DOCTYPE svg PUBLIC "-//W3C//DTD SVG 1.1//EN" "http://www.w3.org/Graphics/SVG/1.1/DTD/svg11.dtd">
<svg version="1.1" id="Layer_1" xmlns="http://www.w3.org/2000/svg" xmlns:xlink="http://www.w3.org/1999/xlink" x="0px" y="0px"
	 width="960px" height="560px" viewBox="0 0 960 560" style="enable-background:new 0 0 960 560;" xml:space="preserve">
<symbol  id="wATPM-zoinkfat" viewBox="-291.8 -251 583.6 502">
	<polygon style="fill:none;" points="26.6,-251 -288.9,-251 -288.9,-168.7 26.6,-168.7 	"/>
	<text transform="matrix(1 0 0 -1 -288.8599 -235.7061)"><tspan x="0" y="0" style="fill:#A60604; font-family:'Chlorinap-Regular'; font-size:72;">we</tspan><tspan x="83.2" y="0" style="fill:#A60604; font-family:'ZoinkFat'; font-size:72;">A</tspan><tspan x="134.2" y="0" style="fill:#A60604; font-family:'Chlorinap-Regular'; font-size:72;">re</tspan><tspan x="195.3" y="0" style="fill:#A60604; font-family:'ZoinkFat'; font-size:72;">T</tspan><tspan x="243.9" y="0" style="fill:#A60604; font-family:'Chlorinap-Regular'; font-size:72;">he</tspan><tspan x="305" y="0" style="fill:#A60604; font-family:'ZoinkFat'; font-size:72;"> </tspan></text>
	<polygon style="fill:none;" points="162.6,80.3 162.6,-241.5 26.6,-241.5 26.6,80.3 	"/>
	<text transform="matrix(0 1 1 0 160.5796 -241.4854)"><tspan x="0" y="0" style="fill:#A60604; font-family:'ZoinkFat'; font-size:144;">P</tspan><tspan x="104.5" y="0" style="fill:#A60604; font-family:'Chlorinap-Regular'; font-size:144;">lay</tspan><tspan x="317.7" y="0" style="fill:#A60604; font-family:'ZoinkFat'; font-size:60;"> </tspan></text>
	<polygon style="fill:none;" points="141.1,-251 141.1,250.3 290.6,250.3 290.6,-251 	"/>
	<text transform="matrix(0 -1 -1 0 156.5967 250.2686)"><tspan x="0" y="0" style="fill:#A60604; font-family:'ZoinkFat'; font-size:144;">M</tspan><tspan x="116.2" y="0" style="fill:#A60604; font-family:'Chlorinap-Regular'; font-size:144;">akers</tspan></text>
</symbol>
<use xlink:href="#wATPM-zoinkfat"  width="583.6" height="502" x="-291.8" y="-251" transform="matrix(1 0 0 -1 480.0002 280.0001)" style="overflow:visible;"/>
</svg>
