<svg xmlns="http://www.w3.org/2000/svg" viewBox="0 0 800 600" enable-background="new 0 0 800 600"><path d="m666 100c.5 9 .9 17 1.4 25.3-9.2 3.1-18 6.1-27.7 9.4 7.8 4.2 14.8 7.8 21.5 11.7 1.6.9 3.4 3 3.5 4.6.4 7 .2 14 .2 21.7-22.3.9-44.8 1.8-68 2.8 0-7.5 0-14.4 0-22.3 12.5 0 24.9 0 37 0 .1-.6.2-1.1.3-1.7-12.7-5.7-25.4-11.3-39-17.4 14-6 27-11.7 40-17.3-.1-.3-.2-.5-.2-.8-13.4 0-26.9 0-41 0 0-5 0-10.4 0-15.9 23.3-.1 46.8-.1 71-.1m-78 213c-4.9 0-8.4 0-12.5 0-.4-9.3-.5-18.2-1.3-27-.8-9.3-2.3-10.2-12.2-9.7 7.7 12.7 5.8 26 2.3 39-1.8 6.6-7.4 10.4-14 10.4-11-.1-21.9-1.3-32.9-2 0-7.2 0-13 0-19 6.7 1 13 2.2 19.6 2.8 4.5.4 11 2 12.4-3.4 1.5-5.8.1-12.4-.8-18.6-.2-1.1-3.8-2.3-5.9-2.4-8.7-.3-17.4-.1-26.9-.1.5-6.3.9-11.7 1.5-18.7 20.6 0 41-.3 61 .2 8.1.2 11.5 4.5 11.2 12.6-.3 11.7-1.2 23.6-1.9 35.8m42.6-15.7c-16.8 5.1-16.8 5.1-17.8 18.9-3.9 0-7.8 0-12.5 0-.4-7.3-4.7-15.9 1-21.6 5-5 13.2-6.8 20-10-2.3-11.7-12.3-6.8-20-8.3-.4-5.5-.9-11-1.3-16.4 21.7 0 42.9 0 64.9 0-.2 4.7 0 8.5-.9 12-.3 1.4-3.2 3-4.9 3.1-9.1.3-18.2.1-28.8.1 4.4 6.5 7.2 12.8 11.8 17 8.1 7.7 6.8 16.6 5.2 27.4-6-7.9-11-15-16.5-22m-22.5 150c7 0 12.2 0 17.8 0-.5 7.3-1 14.3-1.3 21-.2 3.6-.4 7.3.2 10.8.3 2 2.3 3.8 3.5 5.7 1-2 2.7-3.9 2.9-5.9 1-8.5 1.4-17 2.3-25.4.6-5.7 4.5-7.7 9.9-7.7 11.3.2 15.4 3 16.2 14 .9 12.2.2 24.6.2 37.6-3.4-.2-6.8-.3-10.4-.5-.5-10.5-.9-20.9-1.6-31-.1-2-1.5-4-2.2-5.9-1 .2-1.9.3-2.9.5-.3 4.9-.6 9.8-.9 14.7-.1 1.5-.1 3-.1 4.5-.4 14.3-4.3 17.9-18.6 17.4-10.3-.4-14.2-3.3-14.8-13.6-.8-12-.2-24-.2-36m47-59c-1 7.2-1.8 13.4-2.7 19.9-2.2.2-4.1.4-5.5.5 2 5.9 4.9 11.4 5.7 17.3 1.7 12.4-1.5 15.8-13.9 16.3-1.5.1-2.9 0-5.1 0-.1-2.9-.3-5.6-.4-8.3-.1-2.5-.2-5.1-.4-8 4.3-.2 7.3-1.9 5.8-6.6-1.4-4.4.2-11-7.6-10.9-9.3 0-18.6 0-28 0-.5-5.8-.9-10.4-1.4-15.8 17.8-1.5 35-2.9 53.8-4.4m-81 22.4c.3 4.6.6 8.6 1 14-21.5 0-42.7 0-65 0-.5-4.9-1.2-11.2-1.9-18.3 22 1.5 43.6 2.9 65.9 4.3m-401 80.9c-10.2 1-10.2 1-15.6-13.2-5.6 6.7-8 18-21.3 13.4-1.3-8.8-2.7-18.5-4.2-28.8 3.8 0 6.9 0 10.7 0 1.1 4.4 2.3 9.2 3.9 15.4 2.2-4.4 3.5-7.7 5.4-10.6 1-1.4 3.2-2.7 4.8-2.8 1.3 0 3.1 1.7 3.9 3.1 1.7 3.3 2.9 6.8 5.1 12.2 1.7-5.6 3.2-9.3 3.8-13.2.8-5.3 3.4-6.8 9.1-4.7-1.8 9.6-3.7 19.3-5.6 29m248 6.6c-2.7-.3-4.8-.5-7.3-.8-.7-12.8-1.4-25-2.1-38 4-.2 7.3-.4 11.3-.6 0 4.4 0 8.5 0 11.8 6.8.4 12.9.3 18.9 1.1 4.8.6 7.4 3.8 6.7 9-.5 3.6-.9 7.2-1.4 10.8-1.1 9-1.2 9-11.6 7.8 0-5 .3-10-.2-15-.2-1.9-2.5-5.3-3.5-5.2-3.4.4-8.3-.8-9.1 4.7-.6 4.6-1.1 9.3-1.7 14.7m-9.6-7.3c-.1 1.7-.2 4.2-.4 7.3-5.2 0-10.2.5-15.2-.1-6.2-.7-7-5.9-7.7-11-.7-4.3 1.8-9.2-3.1-12.8-1-.7-.3-4.6.5-6.7.9-2.7 2.6-5.1 4.2-8.2 2.7 0 6.4 0 8.5 0 2.5 3.7 4.7 6.1 5.8 9 .7 1.8.4 5.6-.7 6.2-6.2 3.3-3.7 8.8-2.6 12.7.7 1.8 6.3 2.2 10.7 3.6m-124-27.4c5.2 1.5 9.5 2.8 15.2 4.5 11.6-5.7 16.8-3.8 16.9 8.4-3.8.6-7.4 2.8-11-1.7-2.2-2.7-8.7.7-8.9 4.5-.3 5.3-.1 10.5-.1 16.4-3.5.2-6.1.3-9.3.4-1-10.7-1.8-20.9-2.7-32.5m280-7.6c-1.8-16.9-8.9-22.7-26-21-1.9.2-3.8.5-5.7.8-10.6 1.6-15.8 7.3-15.9 18-.1 6.6.3 13.2 1 19.8.4 3.9.8 7.2-4.2 7.8.5 5.9 1 11.3 1.4 16.5 22 0 43.5 0 65 0 0-5.3 0-10.3 0-16.3-7.3 0-14 0-21.5 0 7.3-10 7.4-10.7 5.8-25.5m-12.8 17.8c-1 7.6-4.7 10-12 8.3-.9-.2-2.2-1-2.4-1.7-1.3-6.8-3.3-13.7-3.2-20.4.1-5.3 4.5-8.3 10.5-7.4 6.8 1 8 2.5 8 12.7-.2 2.2-.4 5.3-.8 8.5m100-239c2.8-16 2-32-.8-48-4.7-.3-8.9-.5-13.4-.8 0 3.6 0 6.7 0 9.9-.1 9.8 0 19.6-.4 29.4-.1 1.6-2.3 3.2-3.6 4.8-1.1-1.7-2.9-3.3-3.1-5-.8-8.9-.8-17.9-1.9-26.8-1.1-9.7-13-14.9-21.5-9.5-2 1.3-4.2 4.3-4.2 6.6-.1 17.8.2 35.6.5 54 10.2.5 19 1.2 28 1.4 11.3.4 18.4-4.6 20.4-15.7m-27.4-4.6c-4.1 0-7.5 0-11.6 0-.4-7-.8-13.8-1.2-20.5-.3-5.5 3.5-6 7.6-6.4 4.6-.4 5.2 2.7 5.2 6.1 0 6.8 0 13.6 0 20.8m-108 170c4.8 0 8.9 0 13.3 0 0-12.6-.1-24.7 0-36.8 0-4.1.9-8 6.9-5.8.6 10.2 1.1 20 1.8 29.8.8 10.2 2.7 11.9 13 12.2 1.5.1 3 .1 4.5-.1 4.8-.5 8.3-3 8.4-8 .1-17.8-.2-35.6-.4-54-10.3-.5-19-1-27.7-1.4-11.6-.6-19.6 5.1-20.8 16.7s-.9 23.4-.9 35c0 4.1 1.1 8.2 1.8 12.3m26.7-44c3.9 0 7.2 0 11.4 0 .4 7.1 1 14 1.3 21 .2 5.3-3.8 5.8-7.8 6.1-4.3.3-4.9-2.5-4.9-5.7-.1-7 0-14 0-21.4m107-20.7c-2.4-7.9-7.7-12.7-15.4-13.4-7.3-.7-14.9-.3-22 1.3-3.6.8-8.9 5.3-9.1 8.3-1 14.7-.4 29.6-.4 44.7 4.3-.2 8.4-.4 12.8-.6 0-4.5 0-8.5 0-12.5 0-6.4-.3-12.8.3-19 .4-4.4 2.9-7.4 8.4-5.9.7 15.2 1.3 30 2 45.9 3.4-.3 6.3-.7 9.3-.6 9.2.1 13-5.6 15.2-13.5 3.2-11.7 2.5-23-1.1-34.6m-6.3 27.6c-.9 5.5-4.3 8.4-10.7 8.7 0-9.9 0-19.5 0-29 7.9-1.1 10.9 1 11.3 8.4.2 4.1.1 8.1-.6 12m-375 101c-9-.8-18.2-.2-27.5-.2-.2 3.1-.4 5.4-.6 8.3 5.4 0 10-.2 14.7.1 4 .3 8.9-1.5 12.3 4-7.7.7-14.2 1.3-20.7 1.7-5.5.4-5.5 4.4-5.5 8.3-.1 4.3 1.8 7 6.4 7.1 10 .1 20 0 30 0 .5-2.4.7-3 .8-3.6.3-4.2.7-8.5.9-12.7.1-7.8-3-12.4-10.9-13m-1.7 22.4c-12.4 3.6-15.6 2.5-15.2-5.6 4.9 0 9.9 0 15.2 0 0 1.9 0 3.7 0 5.6m-66-23.4c-3.8-.3-7.7.1-11.4.9-11.2 2.4-16.4 17.3-9.1 26 1.2 1.5 3.5 2.8 5.4 2.9 8 .3 16 .1 24.9.1-.2-3.3-.4-5.7-.6-8.4-4.8.3-8.8.7-12.8.7-3.8-.1-8.7 1.1-9.7-5.4 9.6-.5 18.5-.9 27.5-1.3-.9-12.3-3.2-14.9-14.2-15.7m-10.3 12.5c-1-5 .9-6.9 4.7-7.5 6.6-1 9.9.6 12.5 6.6-5.9.4-11.5.6-17.2.9m151-12.5c-3.8-.3-7.7.1-11.4.9-11.2 2.4-16.4 17.2-9.2 26 1 1.2 2.7 2.6 4.1 2.6 8.6.2 17.2.1 26 .1-.2-3-.4-5.5-.6-8.2-4.7.3-8.8.7-12.8.7-3.8-.1-8.7 1.1-9.9-6.2 9.6 0 18.4 0 27.7 0-.7-12.7-3-15.2-14-16m-10 12.5c-1.3-4.4.1-6.6 4-7.4 6.5-1.3 10.6.5 12.9 6.6-5.8.3-11.4.5-16.9.8m141-12.5c-3.8-.3-7.7.1-11.4.9-11.2 2.4-16.4 17.3-9.1 26 1 1.2 2.7 2.6 4.2 2.6 8.6.2 17.2.1 26 .1-.2-2.9-.3-5.2-.5-7.8-21.3-.7-21.3-.7-22-5.1 9-.4 18-.9 27-1.3-.9-12.2-3.2-14.8-14.3-15.6m-10 12.6c-1.1-4.8.5-7.2 4.4-7.4 4.9-.3 10.3-1.2 12.9 6.5-6 .3-11.5.5-17.3.9" fill="#a60604"/></svg>